<svg width="63" height="47" viewBox="0 0 63 47" fill="none" xmlns="http://www.w3.org/2000/svg">
<path d="M4.7569 38.7352C5.00058 39.0113 5.13038 39.3572 5.12358 39.7121C5.13601 39.9437 5.0914 40.1748 4.99304 40.3884C4.89469 40.6021 4.74511 40.7927 4.55539 40.9462C4.08201 41.2735 3.49555 41.4336 2.90369 41.3969H0V35.2054H2.84423C3.40566 35.1712 3.96263 35.3166 4.41995 35.6168C4.60363 35.7575 4.74908 35.9354 4.84482 36.1365C4.94055 36.3375 4.98396 36.5562 4.97162 36.7752C4.98831 37.1167 4.87115 37.4525 4.64128 37.7219C4.42059 37.9679 4.1156 38.1385 3.77579 38.2059C4.16101 38.2702 4.50873 38.4578 4.7569 38.7352ZM1.35109 37.8006H2.56674C2.84303 37.8193 3.11743 37.7463 3.33974 37.5949C3.43101 37.5191 3.50203 37.4252 3.54728 37.3203C3.59254 37.2154 3.61082 37.1024 3.60071 36.99C3.60929 36.8779 3.59063 36.7656 3.54607 36.661C3.50151 36.5564 3.43217 36.4621 3.34304 36.385C3.11408 36.2294 2.83115 36.1552 2.54692 36.1763H1.35109V37.8006ZM3.45866 40.1749C3.55623 40.0974 3.63292 40.0003 3.68277 39.8911C3.73262 39.782 3.75428 39.6638 3.74606 39.5458C3.7535 39.4264 3.73085 39.307 3.67988 39.1968C3.6289 39.0867 3.55095 38.9888 3.45205 38.9106C3.21421 38.7492 2.9217 38.6699 2.6262 38.6868H1.35109V40.3897H2.64272C2.93345 40.405 3.22122 40.3293 3.45866 40.1749Z" fill="#2196F3"/>
<path d="M10.5709 41.3969L8.98857 38.9772H8.39396V41.3969H7.03296V35.2055H9.60961C10.2591 35.1639 10.9012 35.3523 11.4034 35.7317C11.7635 36.0678 11.9808 36.5106 12.0159 36.9803C12.051 37.45 11.9018 37.9158 11.595 38.2936C11.2771 38.6271 10.8428 38.8494 10.3661 38.9228L12.0508 41.3969H10.5709ZM8.39396 38.1333H9.50721C10.2802 38.1333 10.6667 37.8208 10.6667 37.1957C10.6746 37.068 10.6534 36.9403 10.6045 36.8205C10.5556 36.7007 10.48 36.5916 10.3826 36.5C10.1383 36.314 9.82374 36.2238 9.50721 36.249H8.38075L8.39396 38.1333Z" fill="#2196F3"/>
<path d="M18.0102 40.1506H15.2982L14.8192 41.3967H13.3921L15.8829 35.2748H17.4255L19.9064 41.3967H18.4793L18.0102 40.1506ZM17.6469 39.2129L16.6558 36.5996L15.6648 39.2129H17.6469Z" fill="#2196F3"/>
<path d="M27.3223 41.3968H25.9712L22.942 37.1865V41.3968H21.5942V35.2053H22.942L25.9712 39.4399V35.2053H27.3223V41.3968Z" fill="#2196F3"/>
<path d="M35.0325 39.9148C34.7531 40.3823 34.3275 40.7625 33.8102 41.0067C33.2221 41.2787 32.5694 41.4128 31.9107 41.3969H29.5059V35.2054H31.9107C32.5683 35.1897 33.2201 35.3205 33.8102 35.5865C34.3274 35.8252 34.7535 36.2016 35.0325 36.6663C35.3106 37.1699 35.4555 37.7263 35.4555 38.2906C35.4555 38.8549 35.3106 39.4112 35.0325 39.9148ZM33.4865 39.7666C33.8721 39.3553 34.0841 38.8311 34.0841 38.2891C34.0841 37.747 33.8721 37.2228 33.4865 36.8115C33.0204 36.439 32.4126 36.2498 31.7951 36.2852H30.857V40.2929H31.7951C32.4126 40.3283 33.0204 40.1392 33.4865 39.7666Z" fill="#2196F3"/>
<path d="M18.8557 0.766663C18.8557 0.766663 36.2944 6.7948 35.9244 15.5179V30.2722C35.9244 30.2722 18.4989 24.241 18.8623 15.5179L18.8557 0.766663Z" fill="#2196F3"/>
<path d="M51.4604 26.818C54.7539 24.7427 58.5634 23.4573 62.5401 23.0795V18.4608C57.958 20.0778 54.071 23.0097 51.4604 26.818Z" fill="#2196F3"/>
<path d="M49.4815 28.2094C52.1772 23.2395 56.8504 19.4045 62.5399 17.493V4.18457C62.5399 4.18457 37.7049 12.7716 38.2301 25.1938V46.2C38.2301 46.2 39.3368 45.8159 41.0777 45.096C41.0777 44.4246 41.0777 43.747 41.157 43.0665C41.6709 37.2995 44.6653 31.9554 49.4815 28.2094Z" fill="#2196F3"/>
<path d="M47.1197 36.013C47.2502 34.5561 47.5413 33.1151 47.9885 31.7119C44.9896 34.947 43.1734 38.9613 42.7956 43.1905C42.7592 43.5897 42.7394 43.989 42.7295 44.4003C44.14 43.7803 45.7818 43.006 47.5062 42.0956C47.0662 40.0947 46.936 38.0471 47.1197 36.013Z" fill="#2196F3"/>
<path d="M48.1074 36.0886C47.9421 37.9289 48.0454 39.7812 48.4146 41.5965C55.1998 37.8792 62.8241 32.1354 62.5301 25.1938V24.5889C57.6823 25.0855 53.1468 27.0259 49.6204 30.1119C48.7947 32.0243 48.2848 34.0386 48.1074 36.0886Z" fill="#2196F3"/>
</svg>
