<svg width="94" height="45" viewBox="0 0 94 45" fill="none" xmlns="http://www.w3.org/2000/svg">
<path d="M47.425 21.4082C46.9819 20.8184 46.7699 20.1213 46.8203 19.4196V16.5364C46.8203 15.6526 47.0207 14.9809 47.4216 14.5214C47.8224 14.0619 48.511 13.8331 49.4871 13.8351C50.4044 13.8351 51.0555 14.0306 51.4405 14.4217C51.8605 14.9207 52.0648 15.5308 52.018 16.1463V16.8239H50.3772V16.1375C50.383 15.9129 50.3671 15.6882 50.3296 15.4659C50.306 15.3138 50.2234 15.1732 50.0952 15.067C49.9267 14.9525 49.7145 14.8969 49.5007 14.9115C49.2759 14.897 49.0529 14.9556 48.8756 15.0758C48.7327 15.1935 48.6374 15.3477 48.6038 15.5157C48.5567 15.7511 48.5351 15.9897 48.5393 16.2285V19.7276C48.5134 20.0651 48.5858 20.4029 48.7499 20.7102C48.8315 20.8141 48.9448 20.8965 49.0774 20.9483C49.2099 21 49.3564 21.0191 49.5007 21.0035C49.7109 21.0184 49.9195 20.9615 50.0816 20.8451C50.2153 20.7305 50.3013 20.581 50.3262 20.4198C50.3645 20.1876 50.3816 19.9532 50.3772 19.7188V19.009H52.018V19.6572C52.0641 20.2987 51.8648 20.9356 51.4507 21.4698C51.0736 21.898 50.4315 22.1122 49.4871 22.1122C48.5427 22.1122 47.8292 21.8834 47.425 21.4082Z" fill="#2196F3"/>
<path d="M54.2569 21.4376C53.8425 20.9888 53.6353 20.3347 53.6353 19.4695V16.4367C53.6353 15.5802 53.8425 14.932 54.2569 14.4921C54.6714 14.0521 55.3644 13.8331 56.336 13.8351C57.3008 13.8351 57.9904 14.0541 58.4049 14.4921C58.8193 14.932 59.03 15.5802 59.03 16.4367V19.4695C59.03 20.3259 58.8193 20.9829 58.3981 21.4346C57.9768 21.8863 57.2906 22.1122 56.336 22.1122C55.3814 22.1122 54.6748 21.8834 54.2569 21.4376ZM57.1004 20.7102C57.2488 20.429 57.3164 20.1211 57.2974 19.8126V16.0994C57.3165 15.7969 57.25 15.4949 57.1038 15.2195C57.0205 15.1133 56.9044 15.0296 56.7686 14.9777C56.6329 14.9258 56.483 14.908 56.336 14.9262C56.1886 14.9084 56.0384 14.9265 55.9022 14.9783C55.766 15.0301 55.6492 15.1136 55.5648 15.2195C55.4155 15.4941 55.3477 15.7965 55.3678 16.0994V19.8302C55.3472 20.1388 55.4148 20.4471 55.5648 20.7278C55.6605 20.8224 55.7785 20.8982 55.9109 20.9502C56.0434 21.0021 56.1872 21.029 56.3326 21.029C56.4781 21.029 56.6219 21.0021 56.7543 20.9502C56.8867 20.8982 57.0047 20.8224 57.1004 20.7278V20.7102Z" fill="#2196F3"/>
<path d="M61.0037 13.9236H62.7702L64.0985 19.5192L65.4574 13.9236H67.1764L67.3497 22.0003H66.0791L65.9432 16.3871L64.6319 22.0003H63.6127L62.2538 16.3665L62.1281 22.0003H60.844L61.0037 13.9236Z" fill="#2196F3"/>
<path d="M69.3303 13.9236H72.082C73.6673 13.9236 74.46 14.688 74.46 16.217C74.46 17.6814 73.6254 18.4126 71.9563 18.4106H71.0187V22.0003H69.3201L69.3303 13.9236ZM71.6811 17.3754C71.8489 17.3938 72.0194 17.3805 72.1807 17.3364C72.342 17.2924 72.4903 17.2186 72.6153 17.1202C72.8101 16.8474 72.896 16.5271 72.8599 16.2082C72.8688 15.9618 72.8414 15.7154 72.7784 15.475C72.7542 15.3947 72.7117 15.3193 72.6533 15.2534C72.595 15.1874 72.522 15.1321 72.4387 15.0908C72.2029 14.9931 71.9422 14.9487 71.6811 14.9618H71.0221V17.3754H71.6811Z" fill="#2196F3"/>
<path d="M76.9094 13.9236H78.7337L80.6056 22.0003H79.0225L78.6522 20.138H77.0249L76.6445 22.0003H75.0376L76.9094 13.9236ZM78.4687 19.2025L77.8335 15.8122L77.1982 19.2025H78.4687Z" fill="#2196F3"/>
<path d="M82.1174 13.9236H83.3064L85.5826 18.5309V13.9236H86.9924V22.0003H85.8612L83.5714 17.1906V22.0003H82.114L82.1174 13.9236Z" fill="#2196F3"/>
<path d="M90.2943 18.9208L88.4021 13.9349H89.9954L91.1504 17.1376L92.2341 13.9349H93.7934L91.925 18.9208V22.0003H90.2943V18.9208Z" fill="#2196F3"/>
<path d="M50.0478 25.5316V25.9539H48.6618V29.2359H48.0809V25.9539H46.688V25.5316H50.0478Z" fill="#2196F3"/>
<path d="M54.3926 29.2361H53.9441C53.8986 29.2386 53.8536 29.226 53.8184 29.2009C53.7845 29.1794 53.7585 29.1499 53.7437 29.1159L53.3428 28.2361H51.42L51.0191 29.1159C51.0077 29.1527 50.9868 29.1868 50.9579 29.2156C50.9224 29.2402 50.8777 29.2527 50.8322 29.2508H50.3838L52.0824 25.5467H52.6735L54.3926 29.2361ZM51.5796 27.8607H53.1831L52.5037 26.3532C52.4536 26.2392 52.4116 26.1227 52.378 26.0042C52.3542 26.0746 52.3338 26.142 52.3134 26.2007L52.2523 26.3561L51.5796 27.8607Z" fill="#2196F3"/>
<path d="M57.321 28.8723C57.4274 28.8771 57.534 28.8771 57.6404 28.8723C57.7322 28.8642 57.8231 28.8495 57.9122 28.8283C57.9954 28.8107 58.0771 28.7882 58.1568 28.7609C58.2315 28.7345 58.3062 28.7022 58.3844 28.67V27.8369H57.7049C57.6881 27.8377 57.6713 27.8356 57.6555 27.8305C57.6397 27.8255 57.6253 27.8177 57.6132 27.8076C57.6021 27.7993 57.5932 27.7889 57.5873 27.7772C57.5815 27.7655 57.5787 27.7529 57.5792 27.7401V27.4556H58.8974V28.8753C58.7898 28.9417 58.6762 29.0006 58.5576 29.0513C58.4365 29.1029 58.3103 29.1451 58.1805 29.1774C58.0416 29.2127 57.8996 29.2382 57.7559 29.2537C57.5912 29.2694 57.4256 29.2773 57.2599 29.2771C56.9669 29.2792 56.6762 29.2324 56.4038 29.1393C56.1495 29.051 55.9184 28.9193 55.7243 28.7521C55.5352 28.5832 55.3863 28.3839 55.2861 28.1654C55.179 27.9199 55.126 27.6593 55.1298 27.3969C55.1263 27.133 55.1781 26.8706 55.2827 26.6226C55.3804 26.4031 55.5296 26.2033 55.7209 26.0359C55.9148 25.8693 56.146 25.7385 56.4004 25.6517C56.6913 25.5572 57.0001 25.5105 57.3108 25.5138C57.469 25.5137 57.6269 25.5244 57.7831 25.5461C57.9211 25.5655 58.0566 25.597 58.1873 25.64C58.3062 25.6785 58.42 25.7277 58.5271 25.7866C58.6312 25.8445 58.73 25.9092 58.8226 25.9802L58.6595 26.209C58.6468 26.2299 58.6278 26.2475 58.6044 26.2598C58.5811 26.2722 58.5544 26.279 58.5271 26.2794C58.4895 26.2783 58.453 26.2682 58.4217 26.2501C58.3708 26.2266 58.3164 26.1973 58.2553 26.1621C58.183 26.123 58.1069 26.0896 58.0277 26.0623C57.9264 26.0273 57.8218 25.9998 57.7151 25.9802C57.5728 25.9576 57.4283 25.9468 57.2837 25.9479C57.0595 25.9458 56.837 25.9806 56.628 26.0506C56.439 26.1161 56.2686 26.2161 56.1286 26.3439C55.9878 26.4771 55.8803 26.6338 55.8127 26.8044C55.6609 27.2056 55.6609 27.6381 55.8127 28.0393C55.887 28.2135 56.0027 28.3724 56.1524 28.5057C56.2917 28.6328 56.4608 28.7328 56.6484 28.799C56.8644 28.863 57.0934 28.888 57.321 28.8723Z" fill="#2196F3"/>
<path d="M62.7363 28.8135H64.5912V29.2359H62.1689V25.5316H62.7499L62.7363 28.8135Z" fill="#2196F3"/>
<path d="M66.5209 29.2359H65.9399V25.5316H66.5209V29.2359Z" fill="#2196F3"/>
<path d="M68.6814 25.5492C68.7159 25.5662 68.746 25.5892 68.7697 25.6167L71.253 28.409C71.2497 28.3651 71.2497 28.321 71.253 28.277C71.253 28.236 71.253 28.1949 71.253 28.1568V25.517H71.7592V29.2362H71.4671C71.4238 29.2392 71.3804 29.2321 71.3414 29.2156C71.3061 29.1972 71.275 29.1733 71.2496 29.1452L68.7697 26.3558C68.7697 26.3998 68.7697 26.4409 68.7697 26.482C68.7697 26.523 68.7697 26.5612 68.7697 26.5964V29.2362H68.2839V25.5316H68.5863C68.6191 25.5317 68.6515 25.5377 68.6814 25.5492Z" fill="#2196F3"/>
<path d="M76.0365 25.5316V25.9393H73.9778V27.1623H75.6458V27.5553H73.9778V28.8195H76.0365V29.2272H73.3799V25.5316H76.0365Z" fill="#2196F3"/>
<path d="M15.1618 2.65544L40.9568 8.97876V31.1367L15.1618 24.8164V2.65544ZM13.5073 0.766663V25.8927L42.6079 33.0285V7.90532L13.5073 0.766663Z" fill="#2196F3"/>
<path d="M29.1039 44.6922L0 37.5505V12.4271L29.1039 19.5658V44.6922Z" fill="#2196F3"/>
<path d="M13.9897 2.37093L39.4484 8.61494L28.6215 17.9648L3.1594 11.7179L13.9897 2.37093ZM13.5073 0.766663L0 12.4276L29.1039 19.5662L42.6078 7.90519L13.5073 0.766663Z" fill="#2196F3"/>
<path d="M30.7415 43.2788L42.6078 33.0315L30.7415 30.1192V43.2788Z" fill="#2196F3"/>
</svg>
